<svg width="18" height="16" viewBox="0 0 18 16" fill="none" xmlns="http://www.w3.org/2000/svg">
<path d="M14.2222 15V10.3333M11.8889 12.6667H16.5556M8.77778 10.3333H5.66667C4.21707 10.3333 3.49227 10.3333 2.92054 10.5702C2.15823 10.8859 1.55258 11.4916 1.23682 12.2539C1 12.8256 1 13.5504 1 15M11.5 1.22615C12.6402 1.68767 13.4444 2.80546 13.4444 4.11111C13.4444 5.41676 12.6402 6.53455 11.5 6.99608M9.94444 4.11111C9.94444 5.82933 8.55155 7.22222 6.83333 7.22222C5.11511 7.22222 3.72222 5.82933 3.72222 4.11111C3.72222 2.39289 5.11511 1 6.83333 1C8.55155 1 9.94444 2.39289 9.94444 4.11111Z" stroke="white" stroke-width="1.2" stroke-linecap="round" stroke-linejoin="round"/>
</svg>
