<svg width="28" height="28" viewBox="0 0 28 28" fill="none" xmlns="http://www.w3.org/2000/svg">
<path d="M13.6 7.59995V21.2M10.2 18.0062L11.1962 18.7531C12.5234 19.7493 14.6756 19.7493 16.0038 18.7531C17.3321 17.7569 17.3321 16.143 16.0038 15.1468C15.3408 14.6482 14.4704 14.4 13.6 14.4C12.7784 14.4 11.9567 14.1506 11.33 13.6531C10.0765 12.6569 10.0765 11.043 11.33 10.0468C12.5834 9.05062 14.6166 9.05062 15.8701 10.0468L16.3404 10.4208M23.8 14.4C23.8 15.7394 23.5362 17.0658 23.0236 18.3033C22.511 19.5408 21.7597 20.6653 20.8125 21.6124C19.8654 22.5596 18.7409 23.3109 17.5034 23.8235C16.2659 24.3361 14.9395 24.6 13.6 24.6C12.2605 24.6 10.9342 24.3361 9.69665 23.8235C8.45913 23.3109 7.33469 22.5596 6.38754 21.6124C5.44038 20.6653 4.68905 19.5408 4.17645 18.3033C3.66386 17.0658 3.40002 15.7394 3.40002 14.4C3.40002 11.6947 4.47466 9.10033 6.38754 7.18746C8.30041 5.27459 10.8948 4.19995 13.6 4.19995C16.3052 4.19995 18.8996 5.27459 20.8125 7.18746C22.7254 9.10033 23.8 11.6947 23.8 14.4Z" stroke="black" stroke-width="1.3" stroke-linecap="round" stroke-linejoin="round"/>
</svg>
