<svg width="22" height="22" viewBox="0 0 22 22" fill="none" xmlns="http://www.w3.org/2000/svg">
<path d="M3.97312 21.1513C5.69401 21.1513 7.08907 19.7563 7.08907 18.0354C7.08907 16.3145 5.69401 14.9194 3.97312 14.9194C2.25223 14.9194 0.857178 16.3145 0.857178 18.0354C0.857178 19.7563 2.25223 21.1513 3.97312 21.1513Z" stroke="#000001" stroke-width="1.60336" stroke-linecap="round" stroke-linejoin="round"/>
<path d="M17.9949 17.2563C19.7157 17.2563 21.1108 15.8612 21.1108 14.1404C21.1108 12.4195 19.7157 11.0244 17.9949 11.0244C16.274 11.0244 14.8789 12.4195 14.8789 14.1404C14.8789 15.8612 16.274 17.2563 17.9949 17.2563Z" stroke="#000001" stroke-width="1.60336" stroke-linecap="round" stroke-linejoin="round"/>
<path d="M21.1108 14.1405V1.92599C21.1101 1.80679 21.0821 1.68934 21.0289 1.58267C20.9757 1.476 20.8987 1.38296 20.8039 1.31072C20.7091 1.23848 20.599 1.18897 20.482 1.16598C20.3651 1.143 20.2444 1.14717 20.1293 1.17816L7.6655 4.63686C7.50079 4.68121 7.3552 4.77839 7.25106 4.91348C7.14692 5.04858 7.09001 5.21412 7.08905 5.38469V18.0354" stroke="#000001" stroke-width="1.60336" stroke-linecap="round" stroke-linejoin="round"/>
<path d="M7.08905 9.46622L21.1108 5.57129" stroke="#000001" stroke-width="1.60336" stroke-linecap="round" stroke-linejoin="round"/>
</svg>
