<svg width="21" height="22" viewBox="0 0 21 22" fill="none" xmlns="http://www.w3.org/2000/svg">
<path d="M15.7691 10.2307C17.8083 10.2307 19.4614 8.16431 19.4614 5.61533C19.4614 3.06635 17.8083 1 15.7691 1C13.7299 1 12.0768 3.06635 12.0768 5.61533C12.0768 8.16431 13.7299 10.2307 15.7691 10.2307Z" stroke="#000001" stroke-width="1.60336" stroke-linecap="round" stroke-linejoin="round"/>
<path d="M15.7691 10.231V21.0001" stroke="#000001" stroke-width="1.60336" stroke-linecap="round" stroke-linejoin="round"/>
<path d="M4.84607 1V20.9998" stroke="#000001" stroke-width="1.60336" stroke-linecap="round" stroke-linejoin="round"/>
<path d="M8.69221 1V4.84611C8.69221 5.35119 8.59273 5.85132 8.39945 6.31795C8.20616 6.78458 7.92286 7.20857 7.56572 7.56572C7.20857 7.92286 6.78458 8.20616 6.31795 8.39945C5.85132 8.59273 5.35119 8.69222 4.84611 8.69222V8.69222C3.82606 8.69222 2.84778 8.287 2.1265 7.56572C1.40521 6.84443 1 5.86616 1 4.84611V1" stroke="#000001" stroke-width="1.60336" stroke-linecap="round" stroke-linejoin="round"/>
</svg>
