<svg width="131" height="131" viewBox="0 0 131 131" fill="none" xmlns="http://www.w3.org/2000/svg">
<rect width="131" height="131" fill="#A3EA71"/>
<path d="M79.9253 65.22C80.0578 69.062 80.1903 72.8799 80.3228 76.6978C80.4553 80.5156 80.5998 84.4058 80.7082 88.2598C80.7233 88.8924 80.6338 89.5231 80.4432 90.1266C80.2397 90.8989 79.7768 91.5778 79.132 92.0493C78.4873 92.5208 77.7001 92.7562 76.9024 92.716C76.0797 92.6233 75.3139 92.251 74.7329 91.6612C74.1519 91.0715 73.7911 90.3001 73.7108 89.4762C73.6144 88.677 73.5702 87.8724 73.5783 87.0675C73.5783 80.1062 73.5582 73.1489 73.5181 66.1956C73.5181 65.8584 73.4458 65.3646 73.217 65.208C71.778 64.1969 70.5634 62.8994 69.6494 61.3968C68.7354 59.8943 68.1418 58.219 67.9057 56.4763C66.7575 51.353 67.6106 45.9847 70.2903 41.4697C70.8147 40.4245 71.5772 39.517 72.5165 38.8204C73.4558 38.1238 74.5455 37.6575 75.698 37.4591C77.189 37.2314 78.714 37.4281 80.0984 38.0266C81.4829 38.6251 82.6709 39.6013 83.5264 40.8434C85.3638 43.3007 86.4852 46.2187 86.7662 49.2741C87.2779 52.6306 86.9468 56.0616 85.8027 59.2584C85.3705 60.6493 84.6113 61.9164 83.5888 62.9537C82.5662 63.9909 81.31 64.7681 79.9253 65.22Z" fill="#16120F"/>
<path d="M55.5487 63.2208C55.6451 66.039 55.7655 68.9777 55.8619 71.9164C56.0706 77.4726 56.2673 83.0328 56.452 88.597C56.5022 89.132 56.4375 89.6715 56.2622 90.1794C56.0868 90.6872 55.805 91.1518 55.4354 91.5418C55.0659 91.9319 54.6173 92.2384 54.1196 92.4409C53.6219 92.6434 53.0867 92.7372 52.5498 92.716C52.0748 92.7449 51.5992 92.6699 51.1561 92.4963C50.713 92.3226 50.313 92.0546 49.984 91.7107C49.655 91.3668 49.4049 90.9554 49.2511 90.505C49.0973 90.0546 49.0434 89.5762 49.0933 89.1029C49.1776 86.0678 49.3101 83.081 49.4305 79.9978L50.0447 64.4613C50.0447 63.9916 50.0447 63.5219 50.0447 63.0763C46.1305 61.8358 44.4444 59.8244 44.3842 55.7657C44.3842 51.0927 44.5769 46.4077 44.6852 41.7347C44.6852 41.2048 44.6852 40.6628 44.6852 40.1208C44.6889 39.7444 44.7292 39.3693 44.8057 39.0007C44.8804 38.483 45.1562 38.0156 45.5734 37.7C45.9905 37.3843 46.5152 37.2458 47.0338 37.3146C48.0816 37.4351 48.6597 38.1577 48.6477 39.3982C48.6477 41.4577 48.5754 43.5172 48.5393 45.5646C48.5393 47.1183 48.5393 48.6719 48.5393 50.2135C48.5393 51.3336 49.009 51.9237 49.8641 51.9237C50.7192 51.9237 51.1889 51.2734 51.2009 50.1894C51.2009 46.5522 51.229 42.915 51.2852 39.2778C51.2732 37.7482 52.2728 36.9653 53.5615 37.4591C53.907 37.5802 54.2006 37.8159 54.3935 38.1271C54.5863 38.4383 54.6667 38.8061 54.6214 39.1694C54.5732 42.8387 54.5451 46.508 54.5371 50.1774C54.5371 51.3818 55.2356 52.0682 56.3436 51.8996C56.7388 51.8287 57.092 51.6099 57.3314 51.2877C57.5709 50.9655 57.6785 50.5641 57.6323 50.1653C57.6323 47.6964 57.6323 45.2274 57.7046 42.7584C57.7046 41.6865 57.7046 40.6146 57.7768 39.5307C57.7651 39.2946 57.8046 39.0588 57.8926 38.8395C57.9807 38.6202 58.1151 38.4225 58.2867 38.26C58.4584 38.0975 58.6631 37.9741 58.8869 37.8982C59.1108 37.8224 59.3484 37.7958 59.5834 37.8205C59.8212 37.7973 60.0612 37.8261 60.2868 37.9048C60.5124 37.9835 60.7182 38.1103 60.89 38.2764C61.0618 38.4424 61.1955 38.6438 61.2818 38.8666C61.3681 39.0894 61.405 39.3283 61.39 39.5668C61.39 44.7336 61.39 49.8883 61.39 55.0431C61.4767 56.3768 61.2253 57.7108 60.6589 58.9215C60.0925 60.1321 59.2296 61.1801 58.1502 61.9682C57.3143 62.4478 56.4449 62.8664 55.5487 63.2208Z" fill="#16120F"/>
</svg>
