<svg width="131" height="131" viewBox="0 0 131 131" fill="none" xmlns="http://www.w3.org/2000/svg">
<rect width="131" height="131" fill="#16120F"/>
<path d="M65.5051 87.8264L43.2151 67.5964C40.6029 64.9874 39.0951 61.473 39.0043 57.7822C38.9136 54.0913 40.2469 50.5071 42.7278 47.7729C45.2086 45.0387 48.6467 43.3642 52.329 43.0967C56.0113 42.8293 59.6552 43.9894 62.5051 46.3364L65.5051 48.9764L68.4151 46.3364C69.7854 44.9323 71.4285 43.8235 73.2433 43.0781C75.0581 42.3328 77.0063 41.9667 78.9679 42.0024C80.9294 42.038 82.863 42.4747 84.6495 43.2856C86.436 44.0964 88.0377 45.2642 89.356 46.7172C90.6743 48.1702 91.6814 49.8775 92.3153 51.7342C92.9491 53.5909 93.1963 55.5577 93.0417 57.5135C92.887 59.4693 92.3338 61.3727 91.416 63.1068C90.4983 64.8408 89.2354 66.3686 87.7051 67.5964L65.5051 87.8264Z" fill="#A3EA71"/>
</svg>
