<svg width="22" height="22" viewBox="0 0 22 22" fill="none" xmlns="http://www.w3.org/2000/svg">
<path d="M5.99725 7.30518L6.38187 8.84365" stroke="#000001" stroke-width="1.3" stroke-linecap="round" stroke-linejoin="round"/>
<path d="M11.3818 7.30518L10.9972 8.84365" stroke="#000001" stroke-width="1.3" stroke-linecap="round" stroke-linejoin="round"/>
<path d="M3.02796 11.9206H15.6127L17.1511 4.22827H1.76642C1.65391 4.22868 1.54286 4.25377 1.4411 4.30176C1.33934 4.34976 1.24935 4.41949 1.17747 4.50604C1.10559 4.59259 1.05357 4.69385 1.02508 4.80269C0.996584 4.91153 0.992313 5.0253 1.01257 5.13597L2.27411 11.2899C2.30354 11.4678 2.39578 11.6293 2.5341 11.745C2.67241 11.8607 2.84763 11.923 3.02796 11.9206V11.9206Z" stroke="#000001" stroke-width="1.3" stroke-linecap="round" stroke-linejoin="round"/>
<path d="M17.1512 4.22831L17.7973 1.76676C17.8328 1.59301 17.9272 1.43685 18.0646 1.32471C18.2019 1.21257 18.3738 1.15133 18.5512 1.15137H20.9973" stroke="#000001" stroke-width="1.3" stroke-linecap="round" stroke-linejoin="round"/>
<path d="M15.6126 11.9207L14.9665 15.1514C14.931 15.3252 14.8366 15.4814 14.6992 15.5935C14.5618 15.7056 14.3899 15.7669 14.2126 15.7668H4.84332" stroke="#000001" stroke-width="1.3" stroke-linecap="round" stroke-linejoin="round"/>
<path d="M5.61256 21.1513C6.0374 21.1513 6.38179 20.8069 6.38179 20.382C6.38179 19.9572 6.0374 19.6128 5.61256 19.6128C5.18772 19.6128 4.84332 19.9572 4.84332 20.382C4.84332 20.8069 5.18772 21.1513 5.61256 21.1513Z" stroke="#000001" stroke-width="1.3" stroke-linecap="round" stroke-linejoin="round"/>
<path d="M13.305 21.1513C13.7298 21.1513 14.0742 20.8069 14.0742 20.382C14.0742 19.9572 13.7298 19.6128 13.305 19.6128C12.8801 19.6128 12.5357 19.9572 12.5357 20.382C12.5357 20.8069 12.8801 21.1513 13.305 21.1513Z" stroke="#000001" stroke-width="1.3" stroke-linecap="round" stroke-linejoin="round"/>
</svg>
