<svg width="21" height="17" viewBox="0 0 21 17" fill="none" xmlns="http://www.w3.org/2000/svg">
<path d="M15.1899 5.45825L9.41772 11.0833M9.41772 5.45825L15.1899 11.0833M1.45215 9.17075L5.6081 14.5708C5.94673 15.0108 6.11605 15.2307 6.33063 15.3894C6.52068 15.53 6.7359 15.6348 6.9653 15.6987C7.22431 15.7708 7.5065 15.7708 8.07089 15.7708H15.3823C16.9986 15.7708 17.8068 15.7708 18.4242 15.4642C18.9672 15.1946 19.4087 14.7643 19.6854 14.2351C20 13.6335 20 12.8459 20 11.2708V5.27075C20 3.6956 20 2.90803 19.6854 2.3064C19.4087 1.7772 18.9672 1.34694 18.4242 1.0773C17.8068 0.770752 16.9986 0.770752 15.3823 0.770752H8.07089C7.5065 0.770752 7.22431 0.770752 6.9653 0.842837C6.7359 0.906683 6.52068 1.01155 6.33063 1.15208C6.11605 1.31075 5.94673 1.53075 5.6081 1.97075L1.45215 7.37075C1.20376 7.69349 1.07957 7.85487 1.03169 8.03209C0.989435 8.18853 0.989435 8.35297 1.03169 8.50941C1.07957 8.68664 1.20376 8.84801 1.45215 9.17075Z" stroke="black" stroke-width="1.40278" stroke-linecap="round" stroke-linejoin="round"/>
</svg>
