<svg width="16" height="16" viewBox="0 0 16 16" fill="none" xmlns="http://www.w3.org/2000/svg">
<path d="M0.588242 4.78954C0.588242 3.69006 1.48479 2.79875 2.59074 2.79875C3.16536 2.79875 3.67551 2.4332 3.85723 1.89126L3.92354 1.69349C3.95481 1.60023 3.97044 1.55359 3.98717 1.51223C4.20077 0.984001 4.70132 0.625338 5.27293 0.590922C5.3177 0.588226 5.36714 0.588226 5.46603 0.588226H10.534C10.6329 0.588226 10.6823 0.588226 10.7271 0.590922C11.2987 0.625338 11.7992 0.984001 12.0128 1.51223C12.0296 1.55359 12.0452 1.60023 12.0765 1.69349L12.1428 1.89126C12.3245 2.4332 12.8347 2.79875 13.4093 2.79875C14.5152 2.79875 15.4118 3.69006 15.4118 4.78954V11.0514C15.4118 12.2894 15.4118 12.9084 15.1694 13.3813C14.9562 13.7972 14.6161 14.1354 14.1977 14.3473C13.7221 14.5882 13.0994 14.5882 11.8541 14.5882H4.14589C2.9006 14.5882 2.27795 14.5882 1.80231 14.3473C1.38393 14.1354 1.04377 13.7972 0.830592 13.3813C0.588242 12.9084 0.588242 12.2894 0.588242 11.0514V4.78954Z" stroke="black" stroke-linecap="round" stroke-linejoin="round"/>
<path d="M8.00001 11.2724C9.84204 11.2724 11.3353 9.78791 11.3353 7.95665C11.3353 6.12539 9.84204 4.64086 8.00001 4.64086C6.15797 4.64086 4.66471 6.12539 4.66471 7.95665C4.66471 9.78791 6.15797 11.2724 8.00001 11.2724Z" stroke="black" stroke-linecap="round" stroke-linejoin="round"/>
</svg>
