<svg width="14" height="14" viewBox="0 0 14 14" fill="none" xmlns="http://www.w3.org/2000/svg">
<path d="M5.29801 7.60401C5.55741 7.95079 5.88835 8.23773 6.26839 8.44537C6.64843 8.653 7.06868 8.77647 7.50064 8.80741C7.93259 8.83834 8.36615 8.77602 8.7719 8.62466C9.17765 8.47331 9.54611 8.23646 9.85227 7.93018L11.6643 6.11814C12.2144 5.54855 12.5188 4.78567 12.512 3.99382C12.5051 3.20197 12.1875 2.4445 11.6275 1.88456C11.0676 1.32461 10.3101 1.007 9.51826 1.00011C8.72641 0.993233 7.96353 1.29764 7.39394 1.84777L6.35504 2.88063M7.71407 6.39599C7.45467 6.04921 7.12373 5.76227 6.74369 5.55463C6.36365 5.347 5.9434 5.22353 5.51144 5.19259C5.07949 5.16166 4.64593 5.22398 4.24018 5.37534C3.83443 5.52669 3.46597 5.76354 3.15981 6.06982L1.34777 7.88186C0.797639 8.45145 0.493233 9.21433 0.500114 10.0062C0.506995 10.798 0.824612 11.5555 1.38456 12.1154C1.9445 12.6754 2.70197 12.993 3.49382 12.9999C4.28567 13.0068 5.04855 12.7024 5.61814 12.1522L6.651 11.1194" stroke="black" stroke-linecap="round" stroke-linejoin="round"/>
</svg>
