<svg width="18" height="18" viewBox="0 0 18 18" fill="none" xmlns="http://www.w3.org/2000/svg">
<path d="M6.2 11.1333C6.2 12.1643 7.03574 13 8.06667 13H9.8C10.9046 13 11.8 12.1046 11.8 11C11.8 9.89543 10.9046 9 9.8 9H8.2C7.09543 9 6.2 8.10457 6.2 7C6.2 5.89543 7.09543 5 8.2 5H9.93333C10.9643 5 11.8 5.83574 11.8 6.86667M9 3.8V5M9 13V14.2M17 9C17 13.4183 13.4183 17 9 17C4.58172 17 1 13.4183 1 9C1 4.58172 4.58172 1 9 1C13.4183 1 17 4.58172 17 9Z" stroke="black" stroke-width="1.2" stroke-linecap="round" stroke-linejoin="round"/>
</svg>
