<svg width="131" height="131" viewBox="0 0 131 131" fill="none" xmlns="http://www.w3.org/2000/svg">
<rect width="131" height="131" fill="#FF9500"/>
<path d="M64.5051 87.8264L42.2151 67.5964C39.6029 64.9874 38.0951 61.473 38.0043 57.7822C37.9136 54.0913 39.2469 50.5071 41.7278 47.7729C44.2086 45.0387 47.6467 43.3642 51.329 43.0967C55.0113 42.8293 58.6552 43.9894 61.5051 46.3364L64.5051 48.9764L67.4151 46.3364C68.7854 44.9323 70.4285 43.8235 72.2433 43.0781C74.0581 42.3328 76.0063 41.9667 77.9679 42.0024C79.9294 42.038 81.863 42.4747 83.6495 43.2856C85.436 44.0964 87.0377 45.2642 88.356 46.7172C89.6743 48.1702 90.6814 49.8775 91.3153 51.7342C91.9491 53.5909 92.1963 55.5577 92.0417 57.5135C91.887 59.4693 91.3338 61.3727 90.416 63.1068C89.4983 64.8408 88.2354 66.3686 86.7051 67.5964L64.5051 87.8264Z" fill="#EBFF79"/>
</svg>
