<svg width="131" height="131" viewBox="0 0 131 131" fill="none" xmlns="http://www.w3.org/2000/svg">
<rect width="131" height="131" fill="#FA64B5"/>
<path d="M52.6978 78.0058H47.6378C46.3734 77.907 45.1938 77.3315 44.3378 76.3958C43.6962 75.6991 43.2631 74.8363 43.0876 73.9056C42.9121 72.9749 43.0014 72.0137 43.3452 71.1312C43.689 70.2487 44.2736 69.4804 45.0325 68.9138C45.7913 68.3471 46.694 68.0048 47.6378 67.9258H55.6378L60.7978 62.7658L46.6578 54.0458C45.558 53.381 44.7565 52.3182 44.4195 51.0781C44.0824 49.838 44.2358 48.5158 44.8478 47.3858C45.1136 46.7538 45.5048 46.1823 45.9978 45.7058C46.4958 45.1987 47.091 44.7973 47.7478 44.5258C48.4034 44.2803 49.1018 44.1697 49.8012 44.2006C50.5005 44.2315 51.1864 44.4034 51.8178 44.7058L70.3078 53.2558L79.2378 44.2558C80.2157 43.407 81.4784 42.9594 82.7725 43.0029C84.0667 43.0463 85.2965 43.5776 86.2153 44.49C87.1341 45.4025 87.6738 46.6286 87.7262 47.9224C87.7786 49.2163 87.3398 50.482 86.4978 51.4658L77.4978 60.3958L85.9978 79.0558C86.28 79.6856 86.4331 80.3657 86.4478 81.0558C86.4691 81.7394 86.35 82.4201 86.0978 83.0558C85.8413 83.6717 85.4677 84.2321 84.9978 84.7058C84.5207 85.1931 83.949 85.5776 83.3178 85.8358C82.1878 86.4477 80.8655 86.6011 79.6254 86.2641C78.3853 85.9271 77.3226 85.1255 76.6578 84.0258L67.9378 69.8858L62.7778 75.0458V83.0458C62.6655 84.305 62.0859 85.4765 61.1532 86.3298C60.2204 87.1831 59.002 87.6563 57.7378 87.6563C56.4736 87.6563 55.2552 87.1831 54.3224 86.3298C53.3897 85.4765 52.8101 84.305 52.6978 83.0458V78.0058Z" fill="#EBFF79"/>
</svg>
