<svg width="131" height="131" viewBox="0 0 131 131" fill="none" xmlns="http://www.w3.org/2000/svg">
<rect width="131" height="131" fill="#EBFF79"/>
<path d="M79.5412 65.22C79.6737 69.062 79.8062 72.8799 79.9386 76.6978C80.0711 80.5156 80.2156 84.4058 80.324 88.2598C80.3391 88.8924 80.2496 89.5231 80.0591 90.1266C79.8556 90.8989 79.3926 91.5778 78.7479 92.0493C78.1032 92.5208 77.3159 92.7562 76.5182 92.716C75.6956 92.6233 74.9297 92.251 74.3487 91.6612C73.7678 91.0715 73.4069 90.3001 73.3266 89.4762C73.2302 88.677 73.186 87.8724 73.1941 87.0675C73.1941 80.1062 73.174 73.1489 73.1339 66.1956C73.1339 65.8584 73.0616 65.3646 72.8328 65.208C71.3938 64.1969 70.1792 62.8994 69.2653 61.3968C68.3513 59.8943 67.7576 58.219 67.5215 56.4763C66.3733 51.353 67.2264 45.9847 69.9062 41.4697C70.4305 40.4245 71.1931 39.517 72.1323 38.8204C73.0716 38.1238 74.1614 37.6575 75.3138 37.4591C76.8048 37.2314 78.3298 37.4281 79.7143 38.0266C81.0987 38.6251 82.2867 39.6013 83.1423 40.8434C84.9797 43.3007 86.101 46.2187 86.3821 49.2741C86.8937 52.6306 86.5626 56.0616 85.4186 59.2584C84.9863 60.6493 84.2272 61.9164 83.2046 62.9537C82.182 63.9909 80.9258 64.7681 79.5412 65.22Z" fill="#FA64B5"/>
<path d="M55.1646 63.2208C55.2609 66.039 55.3814 68.9777 55.4777 71.9164C55.6865 77.4726 55.8832 83.0328 56.0679 88.597C56.1181 89.132 56.0533 89.6715 55.878 90.1794C55.7027 90.6872 55.4208 91.1518 55.0513 91.5418C54.6818 91.9319 54.2331 92.2384 53.7354 92.4409C53.2378 92.6434 52.7026 92.7372 52.1657 92.716C51.6906 92.7449 51.215 92.6699 50.7719 92.4963C50.3288 92.3226 49.9288 92.0546 49.5999 91.7107C49.2709 91.3668 49.0208 90.9554 48.8669 90.505C48.7131 90.0546 48.6592 89.5762 48.7091 89.1029C48.7934 86.0678 48.9259 83.081 49.0463 79.9978L49.6606 64.4613C49.6606 63.9916 49.6606 63.5219 49.6606 63.0763C45.7463 61.8358 44.0602 59.8244 44 55.7657C44 51.0927 44.1927 46.4077 44.3011 41.7347C44.3011 41.2048 44.3011 40.6628 44.3011 40.1208C44.3048 39.7444 44.3451 39.3693 44.4215 39.0007C44.4962 38.483 44.7721 38.0156 45.1892 37.7C45.6063 37.3843 46.1311 37.2458 46.6496 37.3146C47.6974 37.4351 48.2755 38.1577 48.2635 39.3982C48.2635 41.4577 48.1912 43.5172 48.1551 45.5646C48.1551 47.1183 48.1551 48.6719 48.1551 50.2135C48.1551 51.3336 48.6248 51.9237 49.4799 51.9237C50.335 51.9237 50.8047 51.2734 50.8168 50.1894C50.8168 46.5522 50.8449 42.915 50.9011 39.2778C50.889 37.7482 51.8887 36.9653 53.1774 37.4591C53.5228 37.5802 53.8165 37.8159 54.0093 38.1271C54.2021 38.4383 54.2826 38.8061 54.2372 39.1694C54.189 42.8387 54.1609 46.508 54.1529 50.1774C54.1529 51.3818 54.8514 52.0682 55.9595 51.8996C56.3546 51.8287 56.7078 51.6099 56.9473 51.2877C57.1867 50.9655 57.2943 50.5641 57.2482 50.1653C57.2482 47.6964 57.2482 45.2274 57.3204 42.7584C57.3204 41.6865 57.3204 40.6146 57.3927 39.5307C57.381 39.2946 57.4205 39.0588 57.5085 38.8395C57.5965 38.6202 57.7309 38.4225 57.9026 38.26C58.0742 38.0975 58.279 37.9741 58.5028 37.8982C58.7266 37.8224 58.9642 37.7958 59.1992 37.8205C59.4371 37.7973 59.6771 37.8261 59.9027 37.9048C60.1283 37.9835 60.3341 38.1103 60.5059 38.2764C60.6777 38.4424 60.8114 38.6438 60.8977 38.8666C60.984 39.0894 61.0209 39.3283 61.0058 39.5668C61.0058 44.7336 61.0058 49.8883 61.0058 55.0431C61.0926 56.3768 60.8411 57.7108 60.2747 58.9215C59.7084 60.1321 58.8455 61.1801 57.766 61.9682C56.9301 62.4478 56.0607 62.8664 55.1646 63.2208Z" fill="#FA64B5"/>
</svg>
