<svg width="131" height="131" viewBox="0 0 131 131" fill="none" xmlns="http://www.w3.org/2000/svg">
<rect width="131" height="131" fill="#16120F"/>
<path d="M79.157 65.22C79.2895 69.062 79.422 72.8799 79.5545 76.6978C79.687 80.5156 79.8315 84.4058 79.9399 88.2598C79.955 88.8924 79.8654 89.5231 79.6749 90.1266C79.4714 90.8989 79.0085 91.5778 78.3637 92.0493C77.719 92.5208 76.9318 92.7562 76.134 92.716C75.3114 92.6233 74.5456 92.251 73.9646 91.6612C73.3836 91.0715 73.0228 90.3001 72.9424 89.4762C72.8461 88.677 72.8018 87.8724 72.81 87.0675C72.81 80.1062 72.7899 73.1489 72.7497 66.1956C72.7497 65.8584 72.6775 65.3646 72.4487 65.208C71.0096 64.1969 69.7951 62.8994 68.8811 61.3968C67.9671 59.8943 67.3735 58.219 67.1373 56.4763C65.9892 51.353 66.8423 45.9847 69.522 41.4697C70.0464 40.4245 70.8089 39.517 71.7482 38.8204C72.6875 38.1238 73.7772 37.6575 74.9297 37.4591C76.4207 37.2314 77.9457 37.4281 79.3301 38.0266C80.7146 38.6251 81.9025 39.6013 82.7581 40.8434C84.5955 43.3007 85.7169 46.2187 85.9979 49.2741C86.5095 52.6306 86.1784 56.0616 85.0344 59.2584C84.6022 60.6493 83.843 61.9164 82.8204 62.9537C81.7979 63.9909 80.5417 64.7681 79.157 65.22Z" fill="#EBFF79"/>
<path d="M54.7804 63.2208C54.8768 66.039 54.9972 68.9777 55.0936 71.9164C55.3023 77.4726 55.499 83.0328 55.6837 88.597C55.7339 89.132 55.6692 89.6715 55.4938 90.1794C55.3185 90.6872 55.0366 91.1518 54.6671 91.5418C54.2976 91.9319 53.849 92.2384 53.3513 92.4409C52.8536 92.6434 52.3184 92.7372 51.7815 92.716C51.3065 92.7449 50.8309 92.6699 50.3878 92.4963C49.9446 92.3226 49.5447 92.0546 49.2157 91.7107C48.8867 91.3668 48.6366 90.9554 48.4828 90.505C48.3289 90.0546 48.2751 89.5762 48.325 89.1029C48.4093 86.0678 48.5417 83.081 48.6622 79.9978L49.2764 64.4613C49.2764 63.9916 49.2764 63.5219 49.2764 63.0763C45.3622 61.8358 43.6761 59.8244 43.6158 55.7657C43.6158 51.0927 43.8085 46.4077 43.9169 41.7347C43.9169 41.2048 43.9169 40.6628 43.9169 40.1208C43.9206 39.7444 43.9609 39.3693 44.0374 39.0007C44.1121 38.483 44.3879 38.0156 44.805 37.7C45.2222 37.3843 45.7469 37.2458 46.2655 37.3146C47.3133 37.4351 47.8914 38.1577 47.8793 39.3982C47.8793 41.4577 47.8071 43.5172 47.7709 45.5646C47.7709 47.1183 47.7709 48.6719 47.7709 50.2135C47.7709 51.3336 48.2407 51.9237 49.0958 51.9237C49.9509 51.9237 50.4206 51.2734 50.4326 50.1894C50.4326 46.5522 50.4607 42.915 50.5169 39.2778C50.5049 37.7482 51.5045 36.9653 52.7932 37.4591C53.1387 37.5802 53.4323 37.8159 53.6251 38.1271C53.818 38.4383 53.8984 38.8061 53.8531 39.1694C53.8049 42.8387 53.7768 46.508 53.7687 50.1774C53.7687 51.3818 54.4673 52.0682 55.5753 51.8996C55.9704 51.8287 56.3237 51.6099 56.5631 51.2877C56.8025 50.9655 56.9101 50.5641 56.864 50.1653C56.864 47.6964 56.864 45.2274 56.9363 42.7584C56.9363 41.6865 56.9363 40.6146 57.0085 39.5307C56.9968 39.2946 57.0363 39.0588 57.1243 38.8395C57.2123 38.6202 57.3468 38.4225 57.5184 38.26C57.69 38.0975 57.8948 37.9741 58.1186 37.8982C58.3424 37.8224 58.58 37.7958 58.8151 37.8205C59.0529 37.7973 59.2929 37.8261 59.5185 37.9048C59.7441 37.9835 59.9499 38.1103 60.1217 38.2764C60.2935 38.4424 60.4272 38.6438 60.5135 38.8666C60.5998 39.0894 60.6367 39.3283 60.6217 39.5668C60.6217 44.7336 60.6217 49.8883 60.6217 55.0431C60.7084 56.3768 60.4569 57.7108 59.8906 58.9215C59.3242 60.1321 58.4613 61.1801 57.3819 61.9682C56.546 62.4478 55.6766 62.8664 54.7804 63.2208Z" fill="#EBFF79"/>
</svg>
