<svg width="131" height="131" viewBox="0 0 131 131" fill="none" xmlns="http://www.w3.org/2000/svg">
<rect width="131" height="131" fill="#FA64B5"/>
<path d="M63.5051 87.8264L41.2151 67.5964C38.6029 64.9874 37.0951 61.473 37.0043 57.7822C36.9136 54.0913 38.2469 50.5071 40.7278 47.7729C43.2086 45.0387 46.6467 43.3642 50.329 43.0967C54.0113 42.8293 57.6552 43.9894 60.5051 46.3364L63.5051 48.9764L66.4151 46.3364C67.7854 44.9323 69.4285 43.8235 71.2433 43.0781C73.0581 42.3328 75.0063 41.9667 76.9679 42.0024C78.9294 42.038 80.863 42.4747 82.6495 43.2856C84.436 44.0964 86.0377 45.2642 87.356 46.7172C88.6743 48.1702 89.6814 49.8775 90.3153 51.7342C90.9491 53.5909 91.1963 55.5577 91.0417 57.5135C90.887 59.4693 90.3338 61.3727 89.416 63.1068C88.4983 64.8408 87.2354 66.3686 85.7051 67.5964L63.5051 87.8264Z" fill="#A3EA71"/>
</svg>
