<svg width="131" height="131" viewBox="0 0 131 131" fill="none" xmlns="http://www.w3.org/2000/svg">
<rect width="131" height="131" fill="#A3EA71"/>
<path d="M53.6978 78.0058H48.6378C47.3734 77.907 46.1938 77.3315 45.3378 76.3958C44.6962 75.6991 44.2631 74.8363 44.0876 73.9056C43.9121 72.9749 44.0014 72.0137 44.3452 71.1312C44.689 70.2487 45.2736 69.4804 46.0325 68.9138C46.7913 68.3471 47.694 68.0048 48.6378 67.9258H56.6378L61.7978 62.7658L47.6578 54.0458C46.558 53.381 45.7565 52.3182 45.4195 51.0781C45.0824 49.838 45.2358 48.5158 45.8478 47.3858C46.1136 46.7538 46.5048 46.1823 46.9978 45.7058C47.4958 45.1987 48.091 44.7973 48.7478 44.5258C49.4034 44.2803 50.1018 44.1697 50.8012 44.2006C51.5005 44.2315 52.1864 44.4034 52.8178 44.7058L71.3078 53.2558L80.2378 44.2558C81.2157 43.407 82.4784 42.9594 83.7725 43.0029C85.0667 43.0463 86.2965 43.5776 87.2153 44.49C88.1341 45.4025 88.6738 46.6286 88.7262 47.9224C88.7786 49.2163 88.3398 50.482 87.4978 51.4658L78.4978 60.3958L86.9978 79.0558C87.28 79.6856 87.4331 80.3657 87.4478 81.0558C87.4691 81.7394 87.35 82.4201 87.0978 83.0558C86.8413 83.6717 86.4677 84.2321 85.9978 84.7058C85.5207 85.1931 84.949 85.5776 84.3178 85.8358C83.1878 86.4477 81.8655 86.6011 80.6254 86.2641C79.3853 85.9271 78.3226 85.1255 77.6578 84.0258L68.9378 69.8858L63.7778 75.0458V83.0458C63.6655 84.305 63.0859 85.4765 62.1532 86.3298C61.2204 87.1831 60.002 87.6563 58.7378 87.6563C57.4736 87.6563 56.2552 87.1831 55.3224 86.3298C54.3897 85.4765 53.8101 84.305 53.6978 83.0458V78.0058Z" fill="#FA64B5"/>
</svg>
