<svg width="80" height="80" viewBox="0 0 80 80" fill="none" xmlns="http://www.w3.org/2000/svg">
<path d="M39.5051 62.8264L17.2151 42.5964C14.6029 39.9874 13.0951 36.473 13.0043 32.7822C12.9136 29.0913 14.2469 25.5071 16.7278 22.7729C19.2086 20.0387 22.6467 18.3642 26.329 18.0967C30.0113 17.8293 33.6552 18.9894 36.5051 21.3364L39.5051 23.9764L42.4151 21.3364C43.7854 19.9323 45.4285 18.8235 47.2433 18.0781C49.0581 17.3328 51.0063 16.9667 52.9679 17.0024C54.9294 17.038 56.863 17.4747 58.6495 18.2856C60.436 19.0964 62.0377 20.2642 63.356 21.7172C64.6743 23.1702 65.6814 24.8775 66.3153 26.7342C66.9491 28.5909 67.1963 30.5577 67.0417 32.5135C66.887 34.4693 66.3338 36.3727 65.416 38.1068C64.4983 39.8408 63.2354 41.3686 61.7051 42.5964L39.5051 62.8264Z" fill="#A3EA71"/>
</svg>
