<svg width="23" height="22" viewBox="0 0 23 22" fill="none" xmlns="http://www.w3.org/2000/svg">
<path d="M8.46667 21V13.1067C8.46667 12.5093 8.46667 12.2106 8.58293 11.9824C8.6852 11.7817 8.84838 11.6185 9.04908 11.5163C9.27725 11.4 9.57595 11.4 10.1733 11.4H13.16C13.7574 11.4 14.0561 11.4 14.2843 11.5163C14.485 11.6185 14.6481 11.7817 14.7504 11.9824C14.8667 12.2106 14.8667 12.5093 14.8667 13.1067V21M1 8.73333L10.6427 1.50133C11.0099 1.22593 11.1935 1.08822 11.3951 1.03514C11.5731 0.988286 11.7602 0.988286 11.9382 1.03514C12.1399 1.08822 12.3235 1.22593 12.6907 1.50133L22.3333 8.73333M3.13334 7.13333V17.5867C3.13334 18.7814 3.13334 19.3788 3.36586 19.8352C3.57039 20.2366 3.89675 20.563 4.29816 20.7675C4.7545 21 5.35189 21 6.54667 21H16.7867C17.9815 21 18.5788 21 19.0352 20.7675C19.4366 20.563 19.763 20.2366 19.9675 19.8352C20.2 19.3788 20.2 18.7814 20.2 17.5867V7.13333L13.7147 2.26933C12.9803 1.71852 12.613 1.44311 12.2097 1.33695C11.8538 1.24324 11.4796 1.24324 11.1236 1.33695C10.7203 1.44311 10.3531 1.71852 9.61867 2.26933L3.13334 7.13333Z" stroke="white" stroke-width="1.2" stroke-linecap="round" stroke-linejoin="round"/>
</svg>
