<svg width="131" height="131" viewBox="0 0 131 131" fill="none" xmlns="http://www.w3.org/2000/svg">
<rect width="131" height="131" fill="#FF9500"/>
<path d="M82.5972 65.2595C82.7546 69.8227 82.9119 74.3573 83.0693 78.8919C83.2266 83.4265 83.3983 88.0469 83.527 92.6244C83.5449 93.3757 83.4386 94.1249 83.2123 94.8416C82.9706 95.7589 82.4207 96.5652 81.655 97.1252C80.8892 97.6852 79.9542 97.9648 79.0067 97.9171C78.0297 97.807 77.12 97.3648 76.43 96.6643C75.74 95.9639 75.3114 95.0477 75.216 94.0691C75.1016 93.1199 75.049 92.1642 75.0586 91.2082C75.0586 82.9401 75.0348 74.6768 74.9871 66.4182C74.9871 66.0177 74.9013 65.4312 74.6295 65.2452C72.9204 64.0443 71.4778 62.5032 70.3922 60.7186C69.3067 58.934 68.6016 56.9443 68.3211 54.8743C66.9575 48.7893 67.9707 42.4132 71.1535 37.0507C71.7763 35.8093 72.682 34.7314 73.7976 33.9041C74.9131 33.0767 76.2075 32.5229 77.5763 32.2873C79.3472 32.0168 81.1584 32.2504 82.8028 32.9613C84.4471 33.6721 85.8581 34.8316 86.8743 36.3069C89.0566 39.2255 90.3885 42.6912 90.7223 46.3201C91.33 50.3067 90.9367 54.3819 89.5779 58.1787C89.0645 59.8308 88.1628 61.3358 86.9483 62.5677C85.7338 63.7997 84.2418 64.7227 82.5972 65.2595Z" fill="#A3EA71"/>
<path d="M53.6446 62.885C53.759 66.2323 53.9021 69.7226 54.0165 73.2129C54.2645 79.8122 54.4981 86.4161 54.7174 93.0249C54.7771 93.6603 54.7002 94.301 54.4919 94.9043C54.2837 95.5075 53.9489 96.0592 53.51 96.5225C53.0711 96.9858 52.5383 97.3499 51.9472 97.5904C51.3561 97.8309 50.7204 97.9423 50.0827 97.9171C49.5185 97.9514 48.9536 97.8623 48.4273 97.6561C47.901 97.4499 47.426 97.1315 47.0352 96.7231C46.6445 96.3146 46.3474 95.8259 46.1647 95.291C45.982 94.7561 45.9181 94.1878 45.9773 93.6257C46.0774 90.0209 46.2348 86.4734 46.3778 82.8114L47.1073 64.3583C47.1073 63.8005 47.1073 63.2426 47.1073 62.7133C42.4583 61.2399 40.4557 58.851 40.3842 54.0304C40.3842 48.4802 40.613 42.9156 40.7418 37.3654C40.7418 36.736 40.7418 36.0923 40.7418 35.4486C40.7461 35.0016 40.794 34.556 40.8848 34.1183C40.9736 33.5034 41.3012 32.9482 41.7966 32.5733C42.292 32.1984 42.9153 32.0339 43.5312 32.1156C44.7757 32.2587 45.4623 33.1169 45.448 34.5903C45.448 37.0364 45.3622 39.4825 45.3193 41.9143C45.3193 43.7596 45.3193 45.6049 45.3193 47.4359C45.3193 48.7663 45.8771 49.4672 46.8928 49.4672C47.9084 49.4672 48.4663 48.6947 48.4806 47.4073C48.4806 43.0873 48.514 38.7673 48.5807 34.4473C48.5664 32.6306 49.7537 31.7008 51.2843 32.2873C51.6947 32.431 52.0434 32.711 52.2724 33.0806C52.5015 33.4502 52.597 33.8871 52.5431 34.3185C52.4859 38.6767 52.4525 43.0348 52.443 47.393C52.443 48.8235 53.2727 49.6388 54.5887 49.4386C55.058 49.3544 55.4776 49.0945 55.7619 48.7118C56.0463 48.329 56.1741 47.8523 56.1193 47.3787C56.1193 44.4462 56.1193 41.5138 56.2051 38.5813C56.2051 37.3082 56.2051 36.0351 56.2909 34.7477C56.277 34.4673 56.324 34.1873 56.4285 33.9268C56.533 33.6663 56.6927 33.4315 56.8966 33.2385C57.1004 33.0455 57.3436 32.8989 57.6094 32.8088C57.8753 32.7187 58.1575 32.6872 58.4366 32.7164C58.7191 32.6889 59.0042 32.7231 59.2721 32.8166C59.5401 32.9101 59.7845 33.0607 59.9886 33.2579C60.1926 33.4551 60.3514 33.6944 60.4539 33.959C60.5564 34.2236 60.6003 34.5074 60.5823 34.7906C60.5823 40.9273 60.5823 47.0497 60.5823 53.1721C60.6854 54.7562 60.3867 56.3407 59.714 57.7786C59.0414 59.2164 58.0165 60.4612 56.7344 61.3973C55.7416 61.9668 54.7089 62.464 53.6446 62.885Z" fill="#A3EA71"/>
</svg>
