<svg width="131" height="131" viewBox="0 0 131 131" fill="none" xmlns="http://www.w3.org/2000/svg">
<rect width="131" height="131" fill="#EBFF79"/>
<path d="M65.3633 92L38.9877 68.1618C35.8967 65.0874 34.1125 60.9462 34.0051 56.5971C33.8978 52.2479 35.4755 48.0245 38.4111 44.8026C41.3466 41.5807 45.4149 39.6075 49.7721 39.2924C54.1293 38.9772 58.4411 40.3442 61.8134 43.1098L65.3633 46.2207L68.8067 43.1098C70.4281 41.4553 72.3724 40.1487 74.5199 39.2704C76.6673 38.3922 78.9725 37.9608 81.2936 38.0028C83.6148 38.0448 85.9027 38.5594 88.0167 39.5149C90.1306 40.4703 92.0259 41.8464 93.5859 43.5586C95.1458 45.2707 96.3375 47.2825 97.0875 49.4704C97.8375 51.6583 98.13 53.9758 97.9471 56.2805C97.7641 58.5851 97.1095 60.8281 96.0235 62.8714C94.9375 64.9147 93.4432 66.7151 91.6324 68.1618L65.3633 92Z" fill="#A3EA71"/>
</svg>
