<svg width="131" height="131" viewBox="0 0 131 131" fill="none" xmlns="http://www.w3.org/2000/svg">
<rect x="131" width="131" height="131" transform="rotate(90 131 0)" fill="#A3EA71"/>
<path d="M49.8859 50.9243L49.8859 44.7026C50.0075 43.1479 50.7163 41.6975 51.8688 40.6449C52.7269 39.8561 53.7895 39.3235 54.9358 39.1077C56.082 38.892 57.2659 39.0017 58.3528 39.4245C59.4397 39.8472 60.3859 40.566 61.0839 41.4991C61.7818 42.4322 62.2034 43.5421 62.3007 44.7026L62.3007 54.5393L68.6559 60.884L79.3957 43.4976C80.2145 42.1453 81.5234 41.1597 83.0507 40.7453C84.5781 40.3309 86.2066 40.5195 87.5984 41.272C88.3767 41.5988 89.0806 42.0799 89.6675 42.686C90.2921 43.2983 90.7864 44.0302 91.1208 44.8378C91.4232 45.6439 91.5594 46.5027 91.5213 47.3626C91.4832 48.2225 91.2716 49.0659 90.8991 49.8423L80.3687 72.5773L91.4534 83.5576C92.4987 84.76 93.0499 86.3126 92.9964 87.9039C92.9429 89.4951 92.2886 91.0073 91.1648 92.137C90.041 93.2668 88.5309 93.9304 86.9374 93.9948C85.3439 94.0592 83.7849 93.5197 82.5733 92.4844L71.5749 81.4181L48.5927 91.8696C47.8169 92.2166 46.9793 92.4048 46.1294 92.4229C45.2875 92.4491 44.4491 92.3027 43.6662 91.9925C42.9076 91.6771 42.2174 91.2178 41.634 90.64C41.0338 90.0534 40.5602 89.3504 40.2422 88.5743C39.4885 87.1848 39.2996 85.559 39.7147 84.0342C40.1298 82.5094 41.117 81.2027 42.4715 80.3852L59.8867 69.6632L53.5315 63.3185L43.6785 63.3185C42.1276 63.1805 40.6847 62.4678 39.6338 61.3209C38.5828 60.174 38 58.6758 38 57.1214C38 55.567 38.5828 54.0689 39.6338 52.9219C40.6847 51.775 42.1276 51.0624 43.6785 50.9243L49.8859 50.9243Z" fill="#EBFF79"/>
</svg>
