<svg width="131" height="131" viewBox="0 0 131 131" fill="none" xmlns="http://www.w3.org/2000/svg">
<rect width="131" height="131" fill="#A3EA71"/>
<path d="M50.9243 81.1141H44.7026C43.1479 80.9925 41.6975 80.2837 40.6449 79.1312C39.8561 78.2731 39.3235 77.2105 39.1077 76.0642C38.892 74.918 39.0017 73.7341 39.4245 72.6472C39.8472 71.5603 40.566 70.6141 41.4991 69.9161C42.4322 69.2182 43.5421 68.7966 44.7026 68.6993H54.5393L60.884 62.3441L43.4976 51.6043C42.1453 50.7855 41.1597 49.4766 40.7453 47.9493C40.3309 46.4219 40.5195 44.7934 41.272 43.4016C41.5988 42.6233 42.0799 41.9194 42.686 41.3325C43.2983 40.7079 44.0302 40.2136 44.8378 39.8792C45.6439 39.5768 46.5027 39.4406 47.3626 39.4787C48.2225 39.5168 49.0659 39.7284 49.8423 40.1009L72.5773 50.6313L83.5576 39.5466C84.76 38.5013 86.3126 37.95 87.9039 38.0036C89.4951 38.0571 91.0073 38.7114 92.137 39.8352C93.2668 40.959 93.9304 42.4691 93.9948 44.0626C94.0592 45.6561 93.5197 47.2151 92.4844 48.4267L81.4181 59.4251L91.8696 82.4073C92.2166 83.1831 92.4048 84.0207 92.4229 84.8706C92.4491 85.7125 92.3027 86.5509 91.9925 87.3338C91.6771 88.0924 91.2178 88.7826 90.64 89.366C90.0534 89.9662 89.3504 90.4398 88.5743 90.7578C87.1848 91.5115 85.559 91.7004 84.0342 91.2853C82.5094 90.8702 81.2027 89.883 80.3852 88.5285L69.6632 71.1133L63.3185 77.4685V87.3215C63.1805 88.8724 62.4678 90.3153 61.3209 91.3662C60.174 92.4172 58.6758 93 57.1214 93C55.567 93 54.0689 92.4172 52.9219 91.3662C51.775 90.3153 51.0624 88.8724 50.9243 87.3215V81.1141Z" fill="#16120F"/>
</svg>
