<svg width="131" height="131" viewBox="0 0 131 131" fill="none" xmlns="http://www.w3.org/2000/svg">
<rect width="131" height="131" fill="#16120F"/>
<path d="M65.2166 78.8462C63.5992 78.8627 61.9964 78.5469 60.5121 77.9194C59.1321 77.3399 57.9094 76.4542 56.9413 75.3328C55.98 74.237 55.3128 72.9251 55 71.5151L58.2449 70.4361C58.6037 71.9646 59.4953 73.3239 60.7672 74.2815C62.1011 75.2209 63.7141 75.7069 65.3583 75.6648C66.434 75.6903 67.5025 75.4874 68.4899 75.07C69.3018 74.7166 69.9946 74.1459 70.4879 73.4239C70.9454 72.7417 71.1869 71.9431 71.1822 71.1277C71.2173 70.2725 70.9069 69.4379 70.3178 68.8039C69.6055 68.1149 68.7215 67.619 67.753 67.3653L62.9636 65.9821C61.3623 65.5281 59.9364 64.6178 58.8684 63.3678C57.9161 62.1875 57.415 60.7201 57.4514 59.2181C57.4397 57.7963 57.8534 56.4022 58.6417 55.2067C59.4453 53.9702 60.5697 52.9632 61.9008 52.288C63.3738 51.5393 65.0157 51.1636 66.6761 51.1953C68.1942 51.167 69.6997 51.4695 71.083 52.0806C72.3191 52.6238 73.4138 53.4324 74.2854 54.4459C75.1151 55.4116 75.7022 56.5531 76 57.7795L72.8259 58.8999C72.4941 57.563 71.7042 56.377 70.587 55.5386C69.4354 54.7134 68.0331 54.2896 66.6053 54.3352C65.6287 54.3267 64.6618 54.525 63.7713 54.9162C62.9685 55.2515 62.2803 55.8033 61.7874 56.5069C61.3107 57.2172 61.0639 58.0509 61.0789 58.8999C61.0724 59.7459 61.368 60.5676 61.915 61.2238C62.612 61.9923 63.5307 62.5371 64.5506 62.7868L68.9008 64.1701C70.6371 64.6142 72.2061 65.5361 73.4211 66.8259C74.3933 67.9956 74.8969 69.4704 74.8381 70.9756C74.8405 72.3721 74.4216 73.7384 73.6336 74.904C72.7926 76.1136 71.6455 77.0904 70.3036 77.7396C68.7256 78.5074 66.9793 78.8872 65.2166 78.8462ZM62.2976 82L67.1721 48H70.0061L65.1032 82H62.2976Z" fill="#A3EA71"/>
</svg>
