<svg width="80" height="80" viewBox="0 0 80 80" fill="none" xmlns="http://www.w3.org/2000/svg">
<path d="M40.2166 53.8462C38.5992 53.8627 36.9964 53.5469 35.5121 52.9194C34.1321 52.3399 32.9094 51.4542 31.9413 50.3328C30.98 49.237 30.3128 47.9251 30 46.5151L33.2449 45.4361C33.6037 46.9646 34.4953 48.3239 35.7672 49.2815C37.1011 50.2209 38.7141 50.7069 40.3583 50.6648C41.434 50.6903 42.5025 50.4874 43.4899 50.07C44.3018 49.7166 44.9946 49.1459 45.4879 48.4239C45.9454 47.7417 46.1869 46.9431 46.1822 46.1277C46.2173 45.2725 45.9069 44.4379 45.3178 43.8039C44.6055 43.1149 43.7215 42.619 42.753 42.3653L37.9636 40.9821C36.3623 40.5281 34.9364 39.6178 33.8684 38.3678C32.9161 37.1875 32.415 35.7201 32.4514 34.2181C32.4397 32.7963 32.8534 31.4022 33.6417 30.2067C34.4453 28.9702 35.5697 27.9632 36.9008 27.288C38.3738 26.5393 40.0157 26.1636 41.6761 26.1953C43.1942 26.167 44.6997 26.4695 46.083 27.0806C47.3191 27.6238 48.4138 28.4324 49.2854 29.4459C50.1151 30.4116 50.7022 31.5531 51 32.7795L47.8259 33.8999C47.4941 32.563 46.7042 31.377 45.587 30.5386C44.4354 29.7134 43.0331 29.2896 41.6053 29.3352C40.6287 29.3267 39.6618 29.525 38.7713 29.9162C37.9685 30.2515 37.2803 30.8033 36.7874 31.5069C36.3107 32.2172 36.0639 33.0509 36.0789 33.8999C36.0724 34.7459 36.368 35.5676 36.915 36.2238C37.612 36.9923 38.5307 37.5371 39.5506 37.7868L43.9008 39.1701C45.6371 39.6142 47.2061 40.5361 48.4211 41.8259C49.3933 42.9956 49.8969 44.4704 49.8381 45.9756C49.8405 47.3721 49.4216 48.7384 48.6336 49.904C47.7926 51.1136 46.6455 52.0904 45.3036 52.7396C43.7256 53.5074 41.9793 53.8872 40.2166 53.8462ZM37.2976 57L42.1721 23H45.0061L40.1032 57H37.2976Z" fill="#FF9500"/>
</svg>
