<svg width="16" height="16" viewBox="0 0 16 16" fill="none" xmlns="http://www.w3.org/2000/svg">
<path d="M14.4 14.3378H8.6054M1 14.7L5.01946 13.154C5.27655 13.0551 5.40509 13.0057 5.52536 12.9411C5.63218 12.8838 5.73402 12.8176 5.82981 12.7433C5.93764 12.6596 6.03503 12.5622 6.2298 12.3674L14.4 4.19729C15.2 3.39722 15.2 2.10006 14.4 1.3C13.5999 0.499936 12.3027 0.499935 11.5027 1.3L3.33252 9.47014C3.13775 9.66492 3.04036 9.76231 2.95668 9.87014C2.88235 9.96593 2.81616 10.0678 2.75882 10.1746C2.69427 10.2949 2.64482 10.4234 2.54594 10.6805L1 14.7ZM1 14.7L2.49074 10.8241C2.59742 10.5467 2.65075 10.408 2.74224 10.3445C2.82219 10.289 2.92112 10.268 3.01673 10.2863C3.12612 10.3072 3.23119 10.4122 3.44131 10.6223L5.07762 12.2587C5.28775 12.4688 5.39281 12.5738 5.4137 12.6832C5.43196 12.7788 5.41096 12.8778 5.35545 12.9577C5.29193 13.0492 5.15325 13.1026 4.8759 13.2092L1 14.7Z" stroke="black" stroke-linecap="round" stroke-linejoin="round"/>
</svg>
