<svg width="23" height="7" viewBox="0 0 23 7" fill="none" xmlns="http://www.w3.org/2000/svg">
<path d="M19.4066 5.76675C20.6811 5.76675 21.7143 4.73356 21.7143 3.45906C21.7143 2.18456 20.6811 1.15137 19.4066 1.15137C18.1321 1.15137 17.0989 2.18456 17.0989 3.45906C17.0989 4.73356 18.1321 5.76675 19.4066 5.76675Z" stroke="#000001" stroke-width="1.60336" stroke-linecap="round" stroke-linejoin="round"/>
<path d="M11.7143 5.76675C12.9888 5.76675 14.022 4.73356 14.022 3.45906C14.022 2.18456 12.9888 1.15137 11.7143 1.15137C10.4398 1.15137 9.40662 2.18456 9.40662 3.45906C9.40662 4.73356 10.4398 5.76675 11.7143 5.76675Z" stroke="#000001" stroke-width="1.60336" stroke-linecap="round" stroke-linejoin="round"/>
<path d="M4.02199 5.76675C5.29649 5.76675 6.32968 4.73356 6.32968 3.45906C6.32968 2.18456 5.29649 1.15137 4.02199 1.15137C2.74748 1.15137 1.71429 2.18456 1.71429 3.45906C1.71429 4.73356 2.74748 5.76675 4.02199 5.76675Z" stroke="#000001" stroke-width="1.60336" stroke-linecap="round" stroke-linejoin="round"/>
</svg>
