<svg width="80" height="80" viewBox="0 0 80 80" fill="none" xmlns="http://www.w3.org/2000/svg">
<path d="M27.6978 52.0058H22.6378C21.3734 51.907 20.1938 51.3315 19.3378 50.3958C18.6962 49.6991 18.2631 48.8363 18.0876 47.9056C17.9121 46.9749 18.0014 46.0137 18.3452 45.1312C18.689 44.2487 19.2736 43.4804 20.0325 42.9138C20.7913 42.3471 21.694 42.0048 22.6378 41.9258H30.6378L35.7978 36.7658L21.6578 28.0458C20.558 27.381 19.7565 26.3182 19.4195 25.0781C19.0824 23.838 19.2358 22.5158 19.8478 21.3858C20.1136 20.7538 20.5048 20.1823 20.9978 19.7058C21.4958 19.1987 22.091 18.7973 22.7478 18.5258C23.4034 18.2803 24.1018 18.1697 24.8012 18.2006C25.5005 18.2315 26.1864 18.4034 26.8178 18.7058L45.3078 27.2558L54.2378 18.2558C55.2157 17.407 56.4784 16.9594 57.7725 17.0029C59.0667 17.0463 60.2965 17.5776 61.2153 18.49C62.1341 19.4025 62.6738 20.6286 62.7262 21.9224C62.7786 23.2163 62.3398 24.482 61.4978 25.4658L52.4978 34.3958L60.9978 53.0558C61.28 53.6856 61.4331 54.3657 61.4478 55.0558C61.4691 55.7394 61.35 56.4201 61.0978 57.0558C60.8413 57.6717 60.4677 58.2321 59.9978 58.7058C59.5207 59.1931 58.949 59.5776 58.3178 59.8358C57.1878 60.4477 55.8655 60.6011 54.6254 60.2641C53.3853 59.9271 52.3226 59.1255 51.6578 58.0258L42.9378 43.8858L37.7778 49.0458V57.0458C37.6655 58.305 37.0859 59.4765 36.1532 60.3298C35.2204 61.1831 34.002 61.6563 32.7378 61.6563C31.4736 61.6563 30.2552 61.1831 29.3224 60.3298C28.3897 59.4765 27.8101 58.305 27.6978 57.0458V52.0058Z" fill="#EBFF79"/>
</svg>
