<svg width="80" height="80" viewBox="0 0 80 80" fill="none" xmlns="http://www.w3.org/2000/svg">
<path d="M54.5412 40.9227C54.6737 44.7646 54.8062 48.5825 54.9386 52.4004C55.0711 56.2183 55.2156 60.1084 55.324 63.9624C55.3391 64.595 55.2496 65.2258 55.0591 65.8292C54.8556 66.6016 54.3926 67.2804 53.7479 67.7519C53.1032 68.2234 52.3159 68.4588 51.5182 68.4186C50.6956 68.3259 49.9297 67.9536 49.3487 67.3639C48.7678 66.7741 48.4069 66.0028 48.3266 65.1788C48.2302 64.3797 48.186 63.575 48.1941 62.7701C48.1941 55.8088 48.174 48.8515 48.1339 41.8982C48.1339 41.561 48.0616 41.0672 47.8328 40.9106C46.3938 39.8995 45.1792 38.602 44.2653 37.0995C43.3513 35.5969 42.7576 33.9217 42.5215 32.1789C41.3733 27.0557 42.2264 21.6873 44.9062 17.1724C45.4305 16.1271 46.1931 15.2196 47.1323 14.523C48.0716 13.8264 49.1614 13.3601 50.3138 13.1618C51.8048 12.9341 53.3298 13.1307 54.7143 13.7292C56.0987 14.3278 57.2867 15.3039 58.1423 16.5461C59.9797 19.0034 61.101 21.9213 61.3821 24.9767C61.8937 28.3332 61.5626 31.7643 60.4186 34.961C59.9863 36.3519 59.2272 37.6191 58.2046 38.6563C57.182 39.6936 55.9258 40.4707 54.5412 40.9227Z" fill="#FA64B5"/>
<path d="M30.1646 38.9234C30.2609 41.7417 30.3814 44.6803 30.4777 47.619C30.6865 53.1752 30.8832 58.7354 31.0679 64.2997C31.1181 64.8346 31.0533 65.3741 30.878 65.882C30.7027 66.3899 30.4208 66.8544 30.0513 67.2445C29.6818 67.6345 29.2331 67.9411 28.7354 68.1436C28.2378 68.3461 27.7026 68.4399 27.1657 68.4186C26.6906 68.4475 26.215 68.3725 25.7719 68.1989C25.3288 68.0253 24.9288 67.7572 24.5999 67.4133C24.2709 67.0694 24.0208 66.658 23.8669 66.2076C23.7131 65.7573 23.6592 65.2788 23.7091 64.8055C23.7934 61.7705 23.9259 58.7836 24.0463 55.7004L24.6606 40.1639C24.6606 39.6942 24.6606 39.2245 24.6606 38.7789C20.7463 37.5384 19.0602 35.5271 19 31.4683C19 26.7953 19.1927 22.1103 19.3011 17.4373C19.3011 16.9074 19.3011 16.3654 19.3011 15.8235C19.3048 15.4471 19.3451 15.0719 19.4215 14.7034C19.4962 14.1857 19.7721 13.7183 20.1892 13.4026C20.6063 13.0869 21.1311 12.9485 21.6496 13.0173C22.6974 13.1377 23.2755 13.8603 23.2635 15.1008C23.2635 17.1603 23.1912 19.2198 23.1551 21.2672C23.1551 22.8209 23.1551 24.3745 23.1551 25.9161C23.1551 27.0362 23.6248 27.6264 24.4799 27.6264C25.335 27.6264 25.8047 26.976 25.8168 25.8921C25.8168 22.2548 25.8449 18.6176 25.9011 14.9804C25.889 13.4508 26.8887 12.668 28.1774 13.1618C28.5228 13.2828 28.8165 13.5186 29.0093 13.8297C29.2021 14.1409 29.2826 14.5087 29.2372 14.872C29.189 18.5413 29.1609 22.2107 29.1529 25.88C29.1529 27.0844 29.8514 27.7709 30.9595 27.6023C31.3546 27.5314 31.7078 27.3125 31.9473 26.9903C32.1867 26.6681 32.2943 26.2667 32.2482 25.868C32.2482 23.399 32.2482 20.93 32.3204 18.461C32.3204 17.3891 32.3204 16.3173 32.3927 15.2333C32.381 14.9973 32.4205 14.7615 32.5085 14.5421C32.5965 14.3228 32.7309 14.1251 32.9026 13.9626C33.0742 13.8002 33.279 13.6768 33.5028 13.6009C33.7266 13.525 33.9642 13.4985 34.1992 13.5231C34.4371 13.4999 34.6771 13.5287 34.9027 13.6074C35.1283 13.6862 35.3341 13.8129 35.5059 13.979C35.6777 14.1451 35.8114 14.3465 35.8977 14.5693C35.984 14.7921 36.0209 15.031 36.0058 15.2694C36.0058 20.4362 36.0058 25.591 36.0058 30.7457C36.0926 32.0794 35.8411 33.4135 35.2747 34.6241C34.7084 35.8347 33.8455 36.8827 32.766 37.6709C31.9301 38.1504 31.0607 38.569 30.1646 38.9234Z" fill="#FA64B5"/>
</svg>
