<svg width="27" height="22" viewBox="0 0 27 22" fill="none" xmlns="http://www.w3.org/2000/svg">
<path d="M23.5324 17.3635C24.0146 17.3635 24.477 17.1719 24.818 16.8309C25.159 16.49 25.3505 16.0275 25.3505 15.5453V11.909C25.3505 11.4267 25.159 10.9643 24.818 10.6233C24.477 10.2823 24.0146 10.0908 23.5324 10.0908H20.8051L19.4051 5.87262C19.2786 5.49629 19.0324 5.17172 18.7041 4.94847C18.3758 4.72522 17.9834 4.61557 17.5869 4.63626H10.2961C9.89959 4.61557 9.50723 4.72522 9.17892 4.94847C8.85061 5.17172 8.6044 5.49629 8.4779 5.87262L7.16881 10.0908H3.53247C3.05026 10.0908 2.5878 10.2823 2.24682 10.6233C1.90585 10.9643 1.71429 11.4267 1.71429 11.909V15.5453C1.71429 16.0275 1.90585 16.49 2.24682 16.8309C2.5878 17.1719 3.05026 17.3635 3.53247 17.3635" stroke="#000001" stroke-width="1.60336" stroke-linecap="round" stroke-linejoin="round"/>
<path d="M7.16882 21C9.17711 21 10.8052 19.3719 10.8052 17.3636C10.8052 15.3553 9.17711 13.7273 7.16882 13.7273C5.16052 13.7273 3.53247 15.3553 3.53247 17.3636C3.53247 19.3719 5.16052 21 7.16882 21Z" stroke="#000001" stroke-width="1.60336" stroke-linecap="round" stroke-linejoin="round"/>
<path d="M19.896 21C21.9043 21 23.5323 19.3719 23.5323 17.3636C23.5323 15.3553 21.9043 13.7273 19.896 13.7273C17.8877 13.7273 16.2596 15.3553 16.2596 17.3636C16.2596 19.3719 17.8877 21 19.896 21Z" stroke="#000001" stroke-width="1.60336" stroke-linecap="round" stroke-linejoin="round"/>
<path d="M10.8052 17.3638H16.2597" stroke="#000001" stroke-width="1.60336" stroke-linecap="round" stroke-linejoin="round"/>
<path d="M13.5324 4.63635V1" stroke="#000001" stroke-width="1.60336" stroke-linecap="round" stroke-linejoin="round"/>
</svg>
