<svg width="18" height="20" viewBox="0 0 18 20" fill="none" xmlns="http://www.w3.org/2000/svg">
<path d="M12.7 4.6V3.88C12.7 2.87191 12.7 2.36786 12.5038 1.98282C12.3312 1.64413 12.0559 1.36876 11.7172 1.19619C11.3321 1 10.8281 1 9.82 1H8.38C7.37191 1 6.86786 1 6.48282 1.19619C6.14413 1.36876 5.86876 1.64413 5.69619 1.98282C5.5 2.36786 5.5 2.87191 5.5 3.88V4.6M7.3 9.55V14.05M10.9 9.55V14.05M1 4.6H17.2M15.4 4.6V14.68C15.4 16.1921 15.4 16.9482 15.1057 17.5258C14.8469 18.0338 14.4338 18.4469 13.9258 18.7057C13.3482 19 12.5921 19 11.08 19H7.12C5.60786 19 4.85179 19 4.27423 18.7057C3.76619 18.4469 3.35314 18.0338 3.09428 17.5258C2.8 16.9482 2.8 16.1921 2.8 14.68V4.6" stroke="black" stroke-width="1.2" stroke-linecap="round" stroke-linejoin="round"/>
</svg>
